# xmcd CD Database Entry
#
# Track frame offsets:
# 150
# 23370
# 39313
# 63940
# 81788
# 104005
# 123123
# 150775
# 175790
# 194543
#
# Disc length: 3031 seconds
#
# Revision: 3
# Processed by: cddbd v1.4PL0 Copyright (c) Steve Scherf et al.
# Submitted via: tcd 2.0b
#
DISCID=6b0bd50a
DTITLE=Kevin Montgomery - Fear Nothing
DYEAR=1900
DGENRE=
TTITLE0=Red-Blooded American Boy
TTITLE1=Everybody's Girl
TTITLE2=Code of Honor
TTITLE3=I Won't Close My Eyes
TTITLE4=Which Way is it Gonna Be
TTITLE5=I Want You
TTITLE6=Fear Nothing
TTITLE7=Josie's Getting Stronger
TTITLE8=Softer Years
TTITLE9=Don't Make Me Hate the Things I Love
EXTD=
EXTT0=
EXTT1=
EXTT2=
EXTT3=
EXTT4=
EXTT5=
EXTT6=
EXTT7=
EXTT8=
EXTT9=
PLAYORDER=
